<svg width="25" height="25" viewBox="0 0 25 25" fill="none" xmlns="http://www.w3.org/2000/svg">
<path d="M5.7279 15.4264L3.91506 23.2763C3.85893 23.514 3.87578 23.7631 3.96342 23.9911C4.05106 24.2191 4.20541 24.4153 4.40632 24.5542C4.60722 24.6931 4.84534 24.7682 5.08958 24.7696C5.33381 24.7711 5.5728 24.6988 5.77535 24.5624L12.4001 20.1459L19.0248 24.5624C19.2321 24.7 19.4765 24.7708 19.7252 24.7653C19.9739 24.7599 20.215 24.6784 20.416 24.5318C20.617 24.3853 20.7683 24.1807 20.8496 23.9456C20.9308 23.7105 20.9381 23.4561 20.8705 23.2167L18.6452 15.4301L24.164 10.4636C24.3408 10.3045 24.467 10.097 24.5271 9.86686C24.5872 9.63673 24.5785 9.39403 24.5022 9.16878C24.4258 8.94353 24.285 8.7456 24.0974 8.59948C23.9097 8.45336 23.6833 8.36545 23.4462 8.34662L16.51 7.79426L13.5085 1.15004C13.4128 0.936098 13.2572 0.754425 13.0605 0.626949C12.8638 0.499472 12.6345 0.431641 12.4001 0.431641C12.1657 0.431641 11.9364 0.499472 11.7397 0.626949C11.543 0.754425 11.3874 0.936098 11.2917 1.15004L8.2902 7.79426L1.35398 8.34541C1.12093 8.36387 0.898142 8.44908 0.712256 8.59085C0.52637 8.73261 0.385262 8.92493 0.305814 9.14479C0.226366 9.36466 0.211941 9.60275 0.264267 9.8306C0.316592 10.0584 0.433451 10.2664 0.600864 10.4296L5.7279 15.4264ZM9.19905 10.1631C9.41622 10.146 9.62478 10.0708 9.80288 9.94534C9.98098 9.8199 10.1221 9.64886 10.2113 9.45014L12.4001 4.60659L14.5889 9.45014C14.6781 9.64886 14.8192 9.8199 14.9973 9.94534C15.1754 10.0708 15.384 10.146 15.6011 10.1631L20.4337 10.5464L16.454 14.1282C16.1085 14.4397 15.971 14.9191 16.0975 15.3668L17.622 20.7019L13.0766 17.6712C12.8771 17.5373 12.6422 17.4657 12.4019 17.4657C12.1616 17.4657 11.9268 17.5373 11.7273 17.6712L6.97741 20.8381L8.25491 15.3072C8.30175 15.1038 8.29547 14.8917 8.23666 14.6914C8.17785 14.4911 8.0685 14.3093 7.91911 14.1635L4.22288 10.5597L9.19905 10.1631Z" fill="#F3CD03"/>
</svg>
