<svg width="48" height="38" viewBox="0 0 48 38" fill="none" xmlns="http://www.w3.org/2000/svg">
<path fill-rule="evenodd" clip-rule="evenodd" d="M45.9165 37.6667C45.9165 37.6667 48.9998 37.6667 48.9998 34.5556C48.9998 31.4445 45.9165 22.1112 33.5832 22.1112C21.2498 22.1112 18.1665 31.4445 18.1665 34.5556C18.1665 37.6667 21.2498 37.6667 21.2498 37.6667H45.9165ZM21.3177 34.5556H45.8487C45.8631 34.5539 45.8775 34.5518 45.8918 34.5494L45.9165 34.5432C45.9103 33.7218 45.4016 31.3387 43.5732 29.192C41.8712 27.1791 38.8803 25.2223 33.5832 25.2223C28.2891 25.2223 25.2983 27.1823 23.5932 29.192C21.7648 31.3387 21.2529 33.7249 21.2498 34.5432C21.2724 34.5475 21.295 34.5517 21.3177 34.5556ZM33.5832 15.8889C35.2187 15.8889 36.7872 15.2334 37.9437 14.0665C39.1001 12.8996 39.7498 11.3169 39.7498 9.66671C39.7498 8.01647 39.1001 6.43382 37.9437 5.26693C36.7872 4.10004 35.2187 3.44448 33.5832 3.44448C31.9477 3.44448 30.3792 4.10004 29.2227 5.26693C28.0662 6.43382 27.4165 8.01647 27.4165 9.66671C27.4165 11.3169 28.0662 12.8996 29.2227 14.0665C30.3792 15.2334 31.9477 15.8889 33.5832 15.8889ZM42.8332 9.66671C42.8332 10.8924 42.5939 12.106 42.1291 13.2384C41.6642 14.3708 40.9828 15.3997 40.1239 16.2664C39.265 17.133 38.2453 17.8205 37.123 18.2896C36.0007 18.7586 34.7979 19 33.5832 19C32.3684 19 31.1656 18.7586 30.0433 18.2896C28.9211 17.8205 27.9014 17.133 27.0424 16.2664C26.1835 15.3997 25.5021 14.3708 25.0373 13.2384C24.5724 12.106 24.3332 10.8924 24.3332 9.66671C24.3332 7.19135 25.3077 4.81738 27.0424 3.06704C28.7771 1.3167 31.1299 0.333374 33.5832 0.333374C36.0364 0.333374 38.3892 1.3167 40.1239 3.06704C41.8586 4.81738 42.8332 7.19135 42.8332 9.66671ZM21.0525 22.9823C19.8191 22.5904 18.5477 22.3328 17.26 22.2138C16.5364 22.1444 15.81 22.1101 15.0832 22.1112C2.74984 22.1112 -0.333496 31.4445 -0.333496 34.5556C-0.333496 36.6307 0.693254 37.6667 2.74984 37.6667H15.7492C15.2921 36.6955 15.0641 35.6306 15.0832 34.5556C15.0832 31.4134 16.2456 28.2027 18.444 25.5209C19.1933 24.6063 20.0658 23.7507 21.0525 22.9823ZM14.8365 25.2223C9.6935 25.2845 6.77359 27.2134 5.09317 29.192C3.25242 31.3512 2.74984 33.7436 2.74984 34.5556H11.9998C11.9998 31.3045 12.9958 28.0658 14.8365 25.2223ZM4.2915 11.2223C4.2915 8.74691 5.26605 6.37294 7.00077 4.6226C8.73548 2.87226 11.0883 1.88893 13.5415 1.88893C15.9948 1.88893 18.3475 2.87226 20.0822 4.6226C21.817 6.37294 22.7915 8.74691 22.7915 11.2223C22.7915 13.6976 21.817 16.0716 20.0822 17.8219C18.3475 19.5723 15.9948 20.5556 13.5415 20.5556C11.0883 20.5556 8.73548 19.5723 7.00077 17.8219C5.26605 16.0716 4.2915 13.6976 4.2915 11.2223ZM13.5415 5.00004C11.906 5.00004 10.3375 5.65559 9.18101 6.82249C8.02454 7.98938 7.37484 9.57203 7.37484 11.2223C7.37484 12.8725 8.02454 14.4551 9.18101 15.622C10.3375 16.7889 11.906 17.4445 13.5415 17.4445C15.177 17.4445 16.7455 16.7889 17.902 15.622C19.0585 14.4551 19.7082 12.8725 19.7082 11.2223C19.7082 9.57203 19.0585 7.98938 17.902 6.82249C16.7455 5.65559 15.177 5.00004 13.5415 5.00004Z" fill="#23A6F0"/>
</svg>
