<svg width="25" height="25" viewBox="0 0 25 25" fill="none" xmlns="http://www.w3.org/2000/svg">
<path d="M24.7035 9.16775C24.627 8.94251 24.4862 8.74459 24.2985 8.59842C24.1109 8.45226 23.8845 8.36426 23.6474 8.34529L16.7112 7.79414L13.7097 1.14992C13.6141 0.935922 13.4586 0.754163 13.262 0.626579C13.0654 0.498994 12.836 0.431037 12.6017 0.430908C12.3673 0.43078 12.1379 0.498485 11.9411 0.625854C11.7444 0.753223 11.5887 0.934811 11.4929 1.1487L8.49137 7.79414L1.55515 8.34529C1.32211 8.36375 1.09931 8.44896 0.913428 8.59072C0.727541 8.73249 0.586434 8.92481 0.506986 9.14467C0.427538 9.36453 0.413113 9.60263 0.465439 9.83047C0.517764 10.0583 0.634623 10.2663 0.802036 10.4294L5.92785 15.4263L4.11502 23.2762C4.05997 23.5138 4.07762 23.7625 4.16566 23.99C4.2537 24.2174 4.40807 24.4132 4.60874 24.5518C4.80942 24.6905 5.04713 24.7656 5.29103 24.7674C5.53493 24.7693 5.77376 24.6978 5.97652 24.5622L12.6013 20.1457L19.226 24.5622C19.4333 24.6998 19.6777 24.7707 19.9264 24.7652C20.1751 24.7598 20.4161 24.6783 20.6171 24.5317C20.8182 24.3852 20.9695 24.1806 21.0507 23.9455C21.132 23.7104 21.1393 23.456 21.0717 23.2166L18.8464 15.4299L24.3652 10.4635C24.7266 10.1374 24.8592 9.62887 24.7035 9.16775Z" fill="#F3CD03"/>
</svg>
